<svg width="138" height="24" viewBox="0 0 138 24" fill="none" xmlns="http://www.w3.org/2000/svg">
<path d="M126 2.25C124.072 2.25 122.187 2.82183 120.583 3.89317C118.98 4.96451 117.73 6.48726 116.992 8.26884C116.254 10.0504 116.061 12.0108 116.437 13.9021C116.814 15.7934 117.742 17.5307 119.106 18.8943C120.469 20.2579 122.207 21.1865 124.098 21.5627C125.989 21.9389 127.95 21.7458 129.731 21.0078C131.513 20.2699 133.035 19.0202 134.107 17.4168C135.178 15.8134 135.75 13.9284 135.75 12C135.747 9.41506 134.719 6.93684 132.891 5.10901C131.063 3.28118 128.585 2.25299 126 2.25ZM129.416 12.624L124.916 15.624C124.803 15.6995 124.672 15.7428 124.536 15.7494C124.401 15.756 124.266 15.7257 124.146 15.6616C124.026 15.5975 123.926 15.5021 123.856 15.3856C123.787 15.2691 123.75 15.1358 123.75 15V9C123.75 8.8642 123.787 8.73092 123.856 8.6144C123.926 8.49787 124.026 8.40248 124.146 8.3384C124.266 8.27433 124.401 8.24398 124.536 8.2506C124.672 8.25721 124.803 8.30055 124.916 8.37598L129.416 11.376C129.519 11.4445 129.603 11.5373 129.661 11.6461C129.72 11.755 129.75 11.8765 129.75 12C129.75 12.1235 129.72 12.245 129.661 12.3539C129.603 12.4627 129.519 12.5555 129.416 12.624Z" fill="white"/>
<path d="M1.43466 19V4.45455H4.0696V16.7912H10.4759V19H1.43466ZM17.0077 19.2131C15.9423 19.2131 15.019 18.9787 14.2378 18.5099C13.4565 18.0412 12.8505 17.3854 12.4196 16.5426C11.9935 15.6998 11.7804 14.715 11.7804 13.5881C11.7804 12.4612 11.9935 11.474 12.4196 10.6264C12.8505 9.77888 13.4565 9.12074 14.2378 8.65199C15.019 8.18324 15.9423 7.94886 17.0077 7.94886C18.073 7.94886 18.9963 8.18324 19.7776 8.65199C20.5588 9.12074 21.1625 9.77888 21.5886 10.6264C22.0195 11.474 22.2349 12.4612 22.2349 13.5881C22.2349 14.715 22.0195 15.6998 21.5886 16.5426C21.1625 17.3854 20.5588 18.0412 19.7776 18.5099C18.9963 18.9787 18.073 19.2131 17.0077 19.2131ZM17.0219 17.1534C17.5995 17.1534 18.0825 16.9948 18.4707 16.6776C18.859 16.3556 19.1478 15.9247 19.3372 15.3849C19.5313 14.8452 19.6284 14.2438 19.6284 13.581C19.6284 12.9134 19.5313 12.3097 19.3372 11.7699C19.1478 11.2254 18.859 10.7921 18.4707 10.4702C18.0825 10.1482 17.5995 9.98722 17.0219 9.98722C16.43 9.98722 15.9376 10.1482 15.5446 10.4702C15.1563 10.7921 14.8652 11.2254 14.671 11.7699C14.4816 12.3097 14.3869 12.9134 14.3869 13.581C14.3869 14.2438 14.4816 14.8452 14.671 15.3849C14.8652 15.9247 15.1563 16.3556 15.5446 16.6776C15.9376 16.9948 16.43 17.1534 17.0219 17.1534ZM28.7614 23.3182C27.8381 23.3182 27.0451 23.1927 26.3822 22.9418C25.7193 22.6955 25.1866 22.3641 24.7842 21.9474C24.3817 21.5308 24.1023 21.0691 23.9461 20.5625L26.2614 20.0014C26.3656 20.2145 26.5171 20.4252 26.716 20.6335C26.9148 20.8466 27.1824 21.0218 27.5185 21.1591C27.8594 21.3011 28.288 21.3722 28.804 21.3722C29.5332 21.3722 30.1369 21.1946 30.6151 20.8395C31.0933 20.4891 31.3325 19.9115 31.3325 19.1065V17.0398H31.2046C31.072 17.3049 30.8779 17.5772 30.6222 17.8565C30.3713 18.1359 30.0375 18.3703 29.6208 18.5597C29.2089 18.7491 28.6904 18.8438 28.0654 18.8438C27.2273 18.8438 26.4674 18.6473 25.7856 18.2543C25.1085 17.8565 24.5687 17.2647 24.1663 16.4787C23.7685 15.688 23.5697 14.6984 23.5697 13.5099C23.5697 12.312 23.7685 11.3011 24.1663 10.4773C24.5687 9.64867 25.1109 9.02131 25.7927 8.59517C26.4745 8.1643 27.2344 7.94886 28.0725 7.94886C28.7117 7.94886 29.2373 8.05777 29.6492 8.27557C30.0659 8.48864 30.3973 8.74669 30.6435 9.04972C30.8898 9.34801 31.0768 9.62973 31.2046 9.89489H31.3467V8.09091H33.8822V19.1776C33.8822 20.1103 33.6596 20.8821 33.2146 21.4929C32.7695 22.1037 32.1611 22.5606 31.3893 22.8636C30.6175 23.1667 29.7415 23.3182 28.7614 23.3182ZM28.7827 16.8267C29.3273 16.8267 29.7913 16.6941 30.1748 16.429C30.5583 16.1638 30.8495 15.7827 31.0484 15.2855C31.2472 14.7884 31.3467 14.1918 31.3467 13.4957C31.3467 12.8092 31.2472 12.2079 31.0484 11.6918C30.8542 11.1757 30.5654 10.7756 30.1819 10.4915C29.8031 10.2027 29.3367 10.0582 28.7827 10.0582C28.2098 10.0582 27.7316 10.2074 27.3481 10.5057C26.9646 10.804 26.6757 11.2135 26.4816 11.7344C26.2875 12.2505 26.1904 12.8376 26.1904 13.4957C26.1904 14.1634 26.2875 14.7481 26.4816 15.25C26.6805 15.7472 26.9717 16.1354 27.3552 16.4148C27.7434 16.6894 28.2193 16.8267 28.7827 16.8267ZM36.1171 19V8.09091H38.6881V19H36.1171ZM37.4097 6.54261C37.0025 6.54261 36.6522 6.40767 36.3586 6.13778C36.065 5.86316 35.9183 5.53409 35.9183 5.15057C35.9183 4.76231 36.065 4.43324 36.3586 4.16335C36.6522 3.88873 37.0025 3.75142 37.4097 3.75142C37.8217 3.75142 38.172 3.88873 38.4609 4.16335C38.7544 4.43324 38.9012 4.76231 38.9012 5.15057C38.9012 5.53409 38.7544 5.86316 38.4609 6.13778C38.172 6.40767 37.8217 6.54261 37.4097 6.54261ZM43.503 12.608V19H40.932V8.09091H43.3893V9.9446H43.5172C43.7681 9.33381 44.1682 8.84848 44.7175 8.48864C45.2715 8.12879 45.9556 7.94886 46.77 7.94886C47.5229 7.94886 48.1786 8.10985 48.7374 8.43182C49.3008 8.75379 49.7364 9.22017 50.0442 9.83097C50.3567 10.4418 50.5106 11.1828 50.5058 12.054V19H47.9348V12.4517C47.9348 11.7225 47.7454 11.152 47.3666 10.7401C46.9926 10.3281 46.4741 10.1222 45.8112 10.1222C45.3614 10.1222 44.9613 10.2216 44.6109 10.4205C44.2653 10.6146 43.993 10.8963 43.7942 11.2656C43.6 11.6349 43.503 12.0824 43.503 12.608ZM57.394 19V4.45455H60.029V10.6122H66.769V4.45455H69.4111V19H66.769V12.821H60.029V19H57.394ZM76.5928 19.2131C75.499 19.2131 74.5544 18.9858 73.7589 18.5312C72.9682 18.072 72.3598 17.4233 71.9337 16.5852C71.5075 15.7424 71.2945 14.7505 71.2945 13.6094C71.2945 12.4872 71.5075 11.5024 71.9337 10.6548C72.3645 9.80256 72.9659 9.13968 73.7376 8.66619C74.5094 8.18797 75.4161 7.94886 76.4578 7.94886C77.1302 7.94886 77.7646 8.05777 78.3612 8.27557C78.9625 8.48864 79.4928 8.82008 79.9521 9.26989C80.4161 9.7197 80.7807 10.2926 81.0459 10.9886C81.311 11.6799 81.4436 12.5038 81.4436 13.4602V14.2486H72.5018V12.5156H78.9791C78.9744 12.0232 78.8678 11.5852 78.6595 11.2017C78.4512 10.8134 78.16 10.508 77.7859 10.2855C77.4166 10.063 76.9857 9.9517 76.4933 9.9517C75.9678 9.9517 75.5061 10.0795 75.1084 10.3352C74.7107 10.5862 74.4005 10.9176 74.178 11.3295C73.9602 11.7367 73.8489 12.1842 73.8442 12.6719V14.1847C73.8442 14.8191 73.9602 15.3636 74.1922 15.8182C74.4242 16.268 74.7485 16.6136 75.1652 16.8551C75.5819 17.0919 76.0696 17.2102 76.6283 17.2102C77.0023 17.2102 77.3409 17.1581 77.6439 17.054C77.9469 16.9451 78.2097 16.7865 78.4322 16.5781C78.6548 16.3698 78.8229 16.1117 78.9365 15.804L81.3371 16.0739C81.1856 16.7083 80.8967 17.2623 80.4706 17.7358C80.0492 18.2045 79.5094 18.5691 78.8513 18.8295C78.1931 19.0852 77.4403 19.2131 76.5928 19.2131ZM83.2187 19V8.09091H85.7116V9.90909H85.8252C86.0241 9.27936 86.365 8.79403 86.8479 8.45312C87.3356 8.10748 87.892 7.93466 88.517 7.93466C88.659 7.93466 88.8176 7.94176 88.9928 7.95597C89.1728 7.96544 89.3219 7.98201 89.4403 8.00568V10.3707C89.3314 10.3329 89.1585 10.2997 88.9218 10.2713C88.6898 10.2382 88.4649 10.2216 88.2471 10.2216C87.7783 10.2216 87.3569 10.3234 86.9829 10.527C86.6136 10.7259 86.3224 11.0028 86.1093 11.358C85.8962 11.7131 85.7897 12.1226 85.7897 12.5866V19H83.2187ZM95.1287 19.2131C94.0349 19.2131 93.0903 18.9858 92.2949 18.5312C91.5042 18.072 90.8957 17.4233 90.4696 16.5852C90.0435 15.7424 89.8304 14.7505 89.8304 13.6094C89.8304 12.4872 90.0435 11.5024 90.4696 10.6548C90.9005 9.80256 91.5018 9.13968 92.2736 8.66619C93.0454 8.18797 93.9521 7.94886 94.9938 7.94886C95.6661 7.94886 96.3006 8.05777 96.8972 8.27557C97.4985 8.48864 98.0288 8.82008 98.4881 9.26989C98.9521 9.7197 99.3167 10.2926 99.5818 10.9886C99.847 11.6799 99.9795 12.5038 99.9795 13.4602V14.2486H91.0378V12.5156H97.5151C97.5103 12.0232 97.4038 11.5852 97.1955 11.2017C96.9871 10.8134 96.6959 10.508 96.3219 10.2855C95.9526 10.063 95.5217 9.9517 95.0293 9.9517C94.5037 9.9517 94.042 10.0795 93.6443 10.3352C93.2466 10.5862 92.9365 10.9176 92.7139 11.3295C92.4961 11.7367 92.3849 12.1842 92.3801 12.6719V14.1847C92.3801 14.8191 92.4961 15.3636 92.7281 15.8182C92.9601 16.268 93.2845 16.6136 93.7011 16.8551C94.1178 17.0919 94.6055 17.2102 95.1642 17.2102C95.5383 17.2102 95.8768 17.1581 96.1798 17.054C96.4829 16.9451 96.7456 16.7865 96.9682 16.5781C97.1907 16.3698 97.3588 16.1117 97.4724 15.804L99.873 16.0739C99.7215 16.7083 99.4327 17.2623 99.0065 17.7358C98.5851 18.2045 98.0454 18.5691 97.3872 18.8295C96.7291 19.0852 95.9762 19.2131 95.1287 19.2131Z" fill="white"/>
</svg>
